<?xml version="1.0" encoding="iso-8859-1"?>
<!-- Generator: Adobe Illustrator 19.0.0, SVG Export Plug-In . SVG Version: 6.00 Build 0)  -->
<svg version="1.1" id="Layer_1" xmlns="http://www.w3.org/2000/svg" xmlns:xlink="http://www.w3.org/1999/xlink" x="0px" y="0px"
	 viewBox="0 0 496.016 496.016" style="enable-background:new 0 0 496.016 496.016;" xml:space="preserve">
<g>
	<path style="fill:#333333;" d="M483.832,324.46l-15.2-4.96c7.552-23.16,11.384-47.344,11.384-71.904
		c0-59.08-22.256-115.368-62.664-158.496l11.672-10.936c43.2,46.104,66.992,106.28,66.992,169.44
		C496.008,273.836,491.912,299.692,483.832,324.46z"/>
	<path style="fill:#333333;" d="M472.216,353.628l-14.456-6.84c2.16-4.56,4.168-9.2,6.04-13.92l14.872,5.88
		C476.688,343.788,474.528,348.748,472.216,353.628z"/>
	<path style="fill:#333333;" d="M461.944,277.308l-15.84-2.208c1.264-9.072,1.904-18.328,1.904-27.504
		c0-36.448-9.912-72.12-28.664-103.168l13.704-8.272c20.248,33.552,30.96,72.088,30.96,111.448
		C464.008,257.508,463.312,267.5,461.944,277.308z"/>
	<path style="fill:#333333;" d="M455.416,307.892l-15.376-4.448c1.368-4.72,2.568-9.488,3.568-14.16l15.64,3.344
		C458.176,297.676,456.88,302.812,455.416,307.892z"/>
	<path style="fill:#333333;" d="M415.904,241.684c-0.728-20.872-5.232-41.128-13.408-60.184l14.704-6.304
		c8.952,20.888,13.896,43.072,14.688,65.936L415.904,241.684z"/>
	<path style="fill:#333333;" d="M429.952,275.076l-15.832-2.368c0.8-5.32,1.344-10.68,1.624-15.936l15.984,0.864
		C431.424,263.396,430.824,269.26,429.952,275.076z"/>
	<path style="fill:#333333;" d="M26.072,180.188l-15.312-4.64C29.088,115.092,69.304,64.396,124.008,32.82
		c22.72-13.12,47.16-22.504,72.64-27.888l3.312,15.656c-23.832,5.04-46.696,13.816-67.952,26.096
		C80.832,76.22,43.216,123.636,26.072,180.188z"/>
	<path style="fill:#333333;" d="M213.936,18.076l-2.328-15.832c5.368-0.792,10.744-1.408,16.112-1.84l1.312,15.944
		C223.992,16.764,218.96,17.332,213.936,18.076z"/>
	<path style="fill:#333333;" d="M72.984,150.796l-14.016-7.728c18.92-34.312,46.944-62.848,81.04-82.536
		c8.552-4.936,17.552-9.336,26.752-13.072l6.016,14.824c-8.512,3.464-16.84,7.536-24.768,12.104
		C116.44,92.62,90.496,119.036,72.984,150.796z"/>
	<path style="fill:#333333;" d="M186.32,57.348l-4.936-15.216c4.984-1.616,10.08-3.064,15.152-4.312l3.816,15.536
		C195.648,54.516,190.928,55.86,186.32,57.348z"/>
	<path style="fill:#333333;" d="M113.512,146.852l-12.816-9.584c13.616-18.2,30.36-33.576,49.752-45.688l8.488,13.568
		C141.224,116.204,125.944,130.236,113.512,146.852z"/>
	<path style="fill:#333333;" d="M172.08,97.732l-7.232-14.272c5.16-2.616,10.536-5.024,15.984-7.168l5.856,14.88
		C181.712,93.132,176.8,95.34,172.08,97.732z"/>
	<path style="fill:#333333;" d="M247.672,495.612c-43.088,0-85.616-11.272-123.664-33.24c-22.728-13.12-43.08-29.6-60.488-48.976
		L75.424,402.7c16.272,18.12,35.312,33.528,56.576,45.808c51.16,29.544,111.04,38.408,168.584,24.984l3.64,15.576
		C285.504,493.444,266.528,495.612,247.672,495.612z"/>
	<path style="fill:#333333;" d="M53.72,401.788c-3.368-4.248-6.584-8.6-9.648-13.032l13.152-9.096
		c2.872,4.152,5.88,8.216,9.04,12.192L53.72,401.788z"/>
	<path style="fill:#333333;" d="M247.776,463.604c-37.728,0-74.896-9.976-107.768-28.952c-8.568-4.944-16.88-10.536-24.704-16.632
		l9.832-12.624c7.24,5.648,14.936,10.824,22.864,15.4c31.576,18.232,67.464,27.552,103.688,26.768l0.312,16
		C250.592,463.596,249.176,463.604,247.776,463.604z"/>
	<path style="fill:#333333;" d="M103.376,408.02c-3.832-3.464-7.64-7.152-11.296-10.96l11.528-11.088
		c3.4,3.536,6.928,6.96,10.488,10.168L103.376,408.02z"/>
	<path style="fill:#333333;" d="M226.112,430.324c-22.576-2.696-44.256-9.504-64.456-20.248l7.512-14.128
		c18.44,9.808,38.232,16.032,58.832,18.488L226.112,430.324z"/>
	<path style="fill:#333333;" d="M147.44,401.684c-4.904-3.2-9.688-6.656-14.208-10.256l9.968-12.512
		c4.136,3.296,8.496,6.448,12.992,9.376L147.44,401.684z"/>
</g>
<path style="fill:#FFA64D;" d="M317.456,490.9c-0.44,0-0.864-0.016-1.304-0.04c-42.584-3.04-79.264-29.472-95.744-68.992
	c-10.928-26.208-11.168-55.832-0.928-82.616c-13.504-4.24-26.064-11.52-36.552-21.208c-21.208,26.176-53.04,41.552-86.92,41.552
	c-37.168,0-71.84-18.472-92.752-49.408C1.128,307.052,0,303.324,0,299.42c0-7,3.456-13.088,9.232-16.504
	c6.008-3.56,13.312-3.64,19.576-0.216c5.848,3.2,12.488,4.896,19.192,4.896c12.112,0,23.432-5.4,31.072-14.808
	c7.64-9.416,10.56-21.784,8.008-33.952c-3.128-14.912-15.232-27.088-30.136-30.28c-9.992-2.144-19.84-0.728-28.472,4.128
	c-5.936,3.328-13,3.256-18.904-0.2C3.584,208.972,0,202.74,0,195.812c0-3.92,1.128-7.664,3.256-10.832
	c23.912-35.368,65.136-53.848,107.616-48.424c28.192,3.648,53.984,18.272,72.064,40.568c10.496-9.688,23.056-16.968,36.56-21.2
	c-12.032-31.432-9.416-66.648,7.504-95.968c18.584-32.192,51.912-52.992,89.168-55.624c3.68-0.304,7.552,0.616,10.952,2.576
	c6.064,3.504,9.608,9.528,9.68,16.248c0.08,6.984-3.504,13.368-9.6,17.064c-5.696,3.456-10.488,8.352-13.848,14.168
	c-6.048,10.48-7.032,22.976-2.704,34.304c4.328,11.32,13.576,20.032,25.392,23.904c14.496,4.752,31.096,0.36,41.296-10.952
	C384.192,94.06,387.88,84.82,388,74.932c0.08-6.808,3.68-12.888,9.624-16.272c6.04-3.448,13.232-3.416,19.224,0.048
	c3.408,1.96,6.088,4.816,7.76,8.24c18.664,38.392,14.112,83.376-11.88,117.4c-17.24,22.576-42.784,37.6-71.12,42.12
	c1.592,6.968,2.392,14.04,2.392,21.128c0,7.096-0.808,14.168-2.4,21.144c33.256,5.288,62.464,25.168,79.4,54.496
	c18.584,32.192,19.928,71.464,3.592,105.032c-1.656,3.4-4.32,6.224-7.704,8.184c-6.08,3.512-13.08,3.552-18.928,0.264
	c-6.088-3.432-9.816-9.728-9.968-16.84c-0.152-6.672-1.992-13.264-5.352-19.072c-6.056-10.488-16.392-17.592-28.36-19.504
	c-11.928-1.92-24.128,1.744-33.4,10.04c-11.352,10.168-15.84,26.744-11.168,41.232c3.144,9.736,9.304,17.544,17.816,22.6
	c5.848,3.472,9.32,9.632,9.28,16.472c-0.048,6.952-3.664,13.168-9.672,16.624C324.152,489.996,320.824,490.9,317.456,490.9z"/>
<path style="fill:#333333;" d="M326.648,303.804c-5.344-9.256-13.968-15.872-24.288-18.64c-0.784-0.208-1.576-0.232-2.36-0.392
	c7.528-10.496,12.008-23.312,12.008-37.184c0-13.84-4.464-26.632-11.96-37.112c0.768-0.16,1.544-0.256,2.312-0.456
	c10.32-2.768,18.944-9.384,24.288-18.64c11.024-19.104,4.464-43.616-14.64-54.648c-19.136-11.032-43.632-4.456-54.648,14.648
	c-5.344,9.256-6.76,20.032-3.992,30.352c0.2,0.76,0.568,1.432,0.816,2.168c-2.032-0.192-4.088-0.312-6.176-0.312
	c-25.856,0-48.128,15.44-58.216,37.56c-7.336-8.256-17.904-13.56-29.784-13.56c-22.056,0-40,17.944-40,40s17.944,40,40,40
	c11.88,0,22.448-5.312,29.784-13.56c10.088,22.12,32.36,37.56,58.216,37.56c2.088,0,4.144-0.12,6.176-0.312
	c-0.248,0.736-0.616,1.416-0.816,2.176c-2.768,10.32-1.352,21.096,3.992,30.352c7.4,12.816,20.872,19.992,34.712,19.992
	c6.784,0,13.656-1.72,19.936-5.344c9.248-5.344,15.864-13.968,18.632-24.296C333.408,323.836,331.992,313.06,326.648,303.804z
	 M271.216,159.388c4.44-7.688,12.52-12,20.832-12c4.072,0,8.184,1.032,11.96,3.208c11.464,6.616,15.4,21.328,8.784,32.784
	c-6.608,11.472-21.304,15.408-32.784,8.784c-5.552-3.2-9.528-8.376-11.184-14.568S268.016,164.94,271.216,159.388z M160.008,271.596
	c-13.232,0-24-10.768-24-24s10.768-24,24-24s24,10.768,24,24S173.24,271.596,160.008,271.596z M200.008,247.596
	c0-26.472,21.528-48,48-48s48,21.528,48,48s-21.528,48-48,48S200.008,274.06,200.008,247.596z M315.184,330.02
	c-1.656,6.192-5.624,11.368-11.176,14.568c-11.448,6.616-26.176,2.672-32.792-8.784c-3.2-5.552-4.056-12.016-2.4-18.208
	s5.632-11.368,11.184-14.568c3.696-2.136,7.808-3.224,11.96-3.224c2.088,0,4.176,0.272,6.248,0.832
	c6.192,1.656,11.368,5.632,14.568,11.176S316.84,323.828,315.184,330.02z"/>
<g>
</g>
<g>
</g>
<g>
</g>
<g>
</g>
<g>
</g>
<g>
</g>
<g>
</g>
<g>
</g>
<g>
</g>
<g>
</g>
<g>
</g>
<g>
</g>
<g>
</g>
<g>
</g>
<g>
</g>
</svg>
