<?xml version="1.0" encoding="iso-8859-1"?>
<!-- Generator: Adobe Illustrator 19.0.0, SVG Export Plug-In . SVG Version: 6.00 Build 0)  -->
<svg version="1.1" id="Layer_1" xmlns="http://www.w3.org/2000/svg" xmlns:xlink="http://www.w3.org/1999/xlink" x="0px" y="0px"
	 viewBox="0 0 496.356 496.356" style="enable-background:new 0 0 496.356 496.356;" xml:space="preserve">
<g>
	<path style="fill:#333333;" d="M64.002,215.996c-17.648,0-32,14.352-32,32c0,17.648,14.352,32,32,32s32-14.36,32-32
		S81.65,215.996,64.002,215.996z M64.002,263.996c-8.824,0-16-7.176-16-16c0-8.824,7.176-16,16-16s16,7.176,16,16
		C80.002,256.82,72.826,263.996,64.002,263.996z"/>
	<path style="fill:#333333;" d="M309.09,399.06c-2.208,8.256-1.08,16.872,3.192,24.28s11.168,12.704,19.432,14.912
		c2.76,0.736,5.552,1.104,8.336,1.104c5.544,0,11.024-1.456,15.952-4.296c15.272-8.832,20.52-28.44,11.712-43.72
		c-4.272-7.4-11.168-12.696-19.432-14.904c-8.248-2.208-16.872-1.072-24.28,3.192C316.594,383.9,311.298,390.804,309.09,399.06z
		 M324.538,403.204c1.112-4.128,3.76-7.576,7.464-9.712c2.512-1.456,5.256-2.144,7.976-2.144c5.528,0,10.912,2.864,13.872,7.992
		c4.408,7.64,1.784,17.448-5.848,21.856c-7.64,4.408-17.448,1.8-21.856-5.856C324.002,411.636,323.442,407.332,324.538,403.204z"/>
	<path style="fill:#333333;" d="M324.002,116.356C324.002,116.364,324.002,116.364,324.002,116.356
		c4.928,2.848,10.408,4.304,15.944,4.304c2.784,0,5.576-0.368,8.336-1.104c8.256-2.208,15.16-7.504,19.432-14.912
		c8.824-15.28,3.56-34.888-11.712-43.712c-15.288-8.8-34.88-3.568-43.72,11.712C303.466,87.932,308.722,107.54,324.002,116.356z
		 M326.146,80.644c2.96-5.128,8.344-8,13.88-8c2.712,0,5.464,0.688,7.976,2.136c7.632,4.416,10.264,14.216,5.848,21.856
		c-2.136,3.704-5.584,6.352-9.712,7.456c-4.168,1.096-8.44,0.528-12.144-1.6l0,0C324.362,98.092,321.73,88.284,326.146,80.644z"/>
	<path style="fill:#333333;" d="M255.738,16.124l0.512-15.992c-5.448-0.168-10.928-0.184-16.392,0l0.528,15.992
		C245.474,15.948,250.626,15.956,255.738,16.124z"/>
	<path style="fill:#333333;" d="M248.002,47.996v-16c-5.448,0-10.944,0.208-16.352,0.616l1.2,15.952
		C237.858,48.188,242.954,47.996,248.002,47.996z"/>
	<path style="fill:#333333;" d="M225.562,81.476c4.864-0.648,9.84-1.088,14.792-1.312l-0.72-15.984
		c-5.408,0.24-10.848,0.728-16.176,1.44L225.562,81.476z"/>
	<path style="fill:#333333;" d="M47.082,364.004c-1.288-2.24-2.544-4.496-3.752-6.768l-14.128,7.528
		c1.296,2.424,2.632,4.824,4.024,7.232c1.36,2.36,2.752,4.68,4.176,6.976l13.576-8.472C49.65,368.372,48.354,366.196,47.082,364.004
		z"/>
	<path style="fill:#333333;" d="M74.794,347.996l-13.856,8c2.728,4.712,5.648,9.376,8.704,13.84l13.216-9.016
		C80.026,356.676,77.314,352.364,74.794,347.996z"/>
	<path style="fill:#333333;" d="M106.49,338.54l-13.504,8.592c2.888,4.536,6.032,9.016,9.344,13.312l12.672-9.768
		C111.986,346.756,109.122,342.668,106.49,338.54z"/>
	<path style="fill:#333333;" d="M448.914,363.996c-1.288,2.24-2.624,4.464-3.984,6.648l13.608,8.424
		c1.44-2.328,2.848-4.688,4.24-7.08c1.352-2.36,2.68-4.736,3.944-7.12l-14.128-7.512
		C451.418,359.58,450.178,361.804,448.914,363.996z"/>
	<path style="fill:#333333;" d="M372.002,33.22L372.002,33.22c-0.024-0.016-0.048-0.032-0.072-0.04
		c-30.56-17.632-69.8-7.136-87.432,23.432l-27.48,47.68c-3-0.184-6.016-0.296-9.016-0.296c-54.72,0-104.72,31.28-128.952,80.048
		l-26.448,0.016c20.704-50.192,65.176-88.032,118.448-99.992l-3.504-15.608c-60.472,13.568-110.52,57.632-132.032,115.608
		l-11.512,0.008c-1.872,0-3.72,0.12-5.552,0.28C82.218,113.468,143.866,61.26,218.298,50.188l-2.36-15.832
		c-83.664,12.456-152.456,72.976-175.64,154.328c-7.28,2.92-13.88,7.144-19.56,12.368C40.69,102.7,122.21,26.844,225.85,17.036
		l-1.512-15.928C96.45,13.22,0.002,119.356,0.002,247.996H0.01c0,0.024-0.008,0.056-0.008,0.08c0,35.288,28.712,64,64.008,64
		l55.088-0.032c24.248,48.712,74.224,79.96,128.904,79.96c2.84,0,5.664-0.088,8.472-0.248l-0.08-1.296l13.928,24.096
		c-53.864,7.192-108.84-12.44-145.816-52.584l-11.768,10.84c35,38,84.744,59.192,135.656,59.192c10.16,0,20.36-0.896,30.504-2.624
		l5.736,9.928c0.936,1.616,1.952,3.16,3.008,4.672c-73.28,14.88-149.304-12.432-196.112-71.352l-12.528,9.952
		c41.48,52.192,104.176,81.48,169.048,81.48c17.432,0,35.008-2.152,52.392-6.504c6.048,4.768,12.968,8.392,20.496,10.744
		c-95.128,31.872-201.568-0.8-261.872-85.648l-13.048,9.264c48.176,67.776,123.872,104.44,201.496,104.44
		c42.312,0,85.192-10.896,124.496-33.584v-0.008c0.024-0.016,0.048-0.024,0.064-0.032c30.552-17.648,41.072-56.864,23.424-87.44
		l-27.592-47.712c15.728-23.632,24.104-50.984,24.104-79.592c0-28.64-8.4-56.016-24.16-79.656l13.232-22.952
		c33.112,43.024,43.648,100.464,27.368,152.568l15.264,4.768c18.48-59.144,5.344-124.52-34.104-172.136l5.752-9.976
		c0.936-1.616,1.76-3.272,2.536-4.936c49.504,56.016,63.888,135.512,36.264,205.512l14.888,5.872
		c31.04-78.672,13.032-168.48-45.792-229.232c1.112-7.624,0.784-15.432-0.936-23.136c75.168,66.456,100.08,174.96,56.768,269.608
		l14.544,6.656C527.098,234.132,483.402,97.54,372.002,33.22z M230.418,150.436l-37.48-17.896
		c16.896-8.072,35.624-12.536,55.032-12.544L230.418,150.436z M175.546,142.612l-3.248,41.392l-35.112,0.024
		C146.85,167.324,160.034,153.268,175.546,142.612z M137.226,312.028l35.072-0.024l3.248,41.376
		C160.05,342.74,146.882,328.7,137.226,312.028z M248.002,375.996c-19.424,0-38.168-4.472-55.072-12.544l37.504-17.904
		l17.608,30.456C248.026,375.996,248.018,375.996,248.002,375.996z M364.066,448.876c-11.104,6.416-24.04,8.12-36.424,4.8
		s-22.736-11.264-29.152-22.376l-60.072-103.88l-5.328,3.088l-1.536-3.216l-40.496,19.336l-3.504-44.744l-3.56,0.28l0-6.168
		l-119.992,0.08c-26.472,0-48-21.528-48-48s21.528-48,48.008-48l120-0.08l-0.008-6.16l3.552,0.28l3.504-44.736l40.496,19.328
		l1.536-3.224l5.336,3.08l59.928-103.96c13.224-22.928,42.656-30.8,65.568-17.568c11.104,6.408,19.048,16.76,22.36,29.144
		c3.32,12.384,1.616,25.32-4.8,36.432l-59.928,103.96l5.336,3.072l-2.024,2.944l36.992,25.408l-36.992,25.408l2.024,2.936
		l-5.328,3.08l60.064,103.872C394.866,406.228,386.986,435.636,364.066,448.876z M341.282,281.548l34.336-23.584
		c-1.464,19.128-7.216,37.416-16.784,53.944L341.282,281.548z M375.618,238.02l-34.352-23.592l17.536-30.416
		C368.386,200.556,374.146,218.868,375.618,238.02z"/>
	<path style="fill:#333333;" d="M421.202,347.996l13.856,8c2.72-4.712,5.288-9.576,7.64-14.464l-14.424-6.936
		C426.114,339.124,423.73,343.628,421.202,347.996z"/>
	<path style="fill:#333333;" d="M397.162,325.292l14.2,7.36c2.52-4.864,4.832-9.832,6.84-14.744l-14.8-6.08
		C401.57,316.316,399.474,320.844,397.162,325.292z"/>
</g>
<circle style="fill:#FFA64D;" cx="247.994" cy="248.06" r="95.984"/>
<path style="fill:#333333;" d="M248.002,312.076c-35.288,0-64-28.712-64-64s28.712-64,64-64s64,28.712,64,64
	S283.29,312.076,248.002,312.076z M248.002,200.076c-26.472,0-48,21.528-48,48s21.528,48,48,48c26.472,0,48-21.528,48-48
	S274.474,200.076,248.002,200.076z"/>
<g>
</g>
<g>
</g>
<g>
</g>
<g>
</g>
<g>
</g>
<g>
</g>
<g>
</g>
<g>
</g>
<g>
</g>
<g>
</g>
<g>
</g>
<g>
</g>
<g>
</g>
<g>
</g>
<g>
</g>
</svg>
