<?xml version="1.0" encoding="iso-8859-1"?>
<!-- Generator: Adobe Illustrator 19.0.0, SVG Export Plug-In . SVG Version: 6.00 Build 0)  -->
<svg version="1.1" id="Layer_1" xmlns="http://www.w3.org/2000/svg" xmlns:xlink="http://www.w3.org/1999/xlink" x="0px" y="0px"
	 viewBox="0 0 496 496" style="enable-background:new 0 0 496 496;" xml:space="preserve">
<g>
	<path style="fill:#333333;" d="M402.672,148.288c-3.064-4.752-6.4-9.424-9.912-13.88l-12.576,9.888
		c3.2,4.08,6.248,8.336,9.048,12.68L402.672,148.288z"/>
	<path style="fill:#333333;" d="M367.592,154.184c-3.088-3.936-6.432-7.784-9.928-11.432l-11.544,11.08
		c3.136,3.264,6.128,6.712,8.888,10.224L367.592,154.184z"/>
	<path style="fill:#333333;" d="M184.704,75.232l5.52,15.016c4.848-1.784,9.84-3.36,14.848-4.688l-4.104-15.472
		C195.488,71.552,190.016,73.272,184.704,75.232z"/>
	<path style="fill:#333333;" d="M181.784,111.184l6.976,14.408c4.08-1.976,8.272-3.768,12.472-5.304l-5.504-15.016
		C191.032,106.984,186.344,108.976,181.784,111.184z"/>
	<path style="fill:#333333;" d="M64.12,254.816l15.992-0.608c-0.2-5.152-0.152-10.392,0.128-15.576l-15.976-0.88
		C63.952,243.432,63.904,249.176,64.12,254.816z"/>
	<path style="fill:#333333;" d="M96.096,253.608c0.192,5.032,0.632,10.104,1.32,15.088l15.848-2.184
		c-0.616-4.464-1.008-9-1.176-13.496L96.096,253.608z"/>
	<path style="fill:#333333;" d="M181.48,419.576c5.296,2.048,10.736,3.864,16.168,5.408l4.368-15.392
		c-4.968-1.408-9.936-3.072-14.784-4.936L181.48,419.576z"/>
	<path style="fill:#333333;" d="M206.4,394.208c4.84,1.376,9.808,2.52,14.744,3.408l2.832-15.752
		c-4.424-0.792-8.864-1.824-13.208-3.048L206.4,394.208z"/>
	<path style="fill:#333333;" d="M378.216,354.192l12.408,10.112c3.576-4.392,6.992-9.008,10.152-13.728l-13.296-8.904
		C384.592,345.968,381.472,350.192,378.216,354.192z"/>
	<path style="fill:#333333;" d="M367.88,312.224c-2.12,3.968-4.472,7.872-6.984,11.608l13.288,8.92
		c2.8-4.176,5.424-8.544,7.8-12.984L367.88,312.224z"/>
	<path style="fill:#333333;" d="M248,0C111.256,0,0,111.248,0,248s111.256,248,248,248s248-111.248,248-248S384.752,0,248,0z
		 M248,480C120.072,480,16,375.92,16,248S120.072,16,248,16s232,104.08,232,232S375.928,480,248,480z"/>
	<path style="fill:#333333;" d="M248,32C128.896,32,32,128.896,32,248s96.896,216,216,216s216-96.896,216-216S367.104,32,248,32z
		 M351.64,419c3.968-24.896,4.048-68.24-25.632-118.008l-13.744,8.184c33.528,56.248,25.704,102.648,20.896,119.736
		c-6.496,3.072-13.192,5.776-20.048,8.144c9.952-22.456,18.768-64-12.992-117.256l-13.744,8.184
		c9.528,15.984,14.928,30.68,17.624,43.888c-20.928,9.488-43.968,13.576-66.992,11.672l-1.304,15.952
		c4.144,0.336,8.272,0.496,12.4,0.496c19.928,0,39.616-3.968,57.984-11.576c0.288,6.264-0.008,12.08-0.712,17.416
		c-28.288,10.296-58.808,12.864-88.616,7.224l-2.976,15.72c11.416,2.168,22.928,3.232,34.408,3.232
		c17.904,0,35.68-2.696,52.848-7.872c-3.296,9.424-7.328,15.912-9.512,19.024c-14.024,3.128-28.576,4.824-43.528,4.824
		c-49.824,0-95.416-18.36-130.472-48.608c24.92-3.944,66.08-17.296,104.184-60.832l-12.04-10.528
		c-43.032,49.16-89.456,56.136-107.28,56.864c-4.96-5.272-9.656-10.784-14.024-16.56c3.296,0.344,6.84,0.584,10.736,0.584
		c25,0,61.392-8.792,96.72-49.16l-12.04-10.528c-12.256,14-24.56,23.68-36.288,30.32c-15.48-16.96-26.472-37.592-31.808-60.104
		l-15.568,3.688c5.584,23.544,16.68,45.288,32.264,63.52c-5.864,2.208-11.48,3.712-16.76,4.688
		c-18.536-23.72-30.408-51.952-34.256-82.048l-15.864,2.032c3.776,29.496,14.576,57.376,31.344,81.544
		c-9.904-0.232-17.28-2.032-20.936-3.144c-17.696-29.824-27.896-64.6-27.896-101.72c0-27.456,5.568-53.624,15.616-77.464
		c11.416,22.472,36.824,57.616,90.12,80.448l6.304-14.704c-60.16-25.784-81.112-67.912-87.272-84.568
		c3.488-6.32,7.32-12.408,11.448-18.288c5.176,24.024,22.496,62.744,79.408,87.12l6.304-14.704
		c-17.144-7.344-30.056-16.104-40.008-25.224c11.344-19.936,27.552-36.728,47.288-48.744l-8.32-13.672
		c-20.648,12.576-37.88,29.824-50.408,50.256c-3.904-4.888-7.096-9.744-9.648-14.464c16.824-24.928,39.992-44.944,67.424-57.896
		l-6.832-14.472c-26.88,12.704-50.056,31.584-67.84,54.992c-2.832-9.472-3.424-16.976-3.488-20.784
		c36.672-41.552,90.272-67.832,149.92-67.832c5.616,0,11.16,0.288,16.656,0.744c-17.848,17.816-43.376,52.824-48.624,110.528
		L232,160.72c5.928-65.232,39.568-98.176,53.488-109.16c7.168,1.368,14.208,3.08,21.088,5.192
		c-21.248,12.272-52.888,40.624-58.512,102.512L264,160.72c1.688-18.576,6.024-33.56,11.624-45.848
		c22.464,4.632,43.448,14.856,60.968,29.912l10.432-12.144c-18.328-15.752-40.056-26.808-63.368-32.408
		c3.448-5.224,7.08-9.76,10.776-13.648c28.912,8.296,55.104,24.152,75.904,46.224l11.64-10.968
		c-20.384-21.632-45.496-37.832-73.256-47.528c8.24-5.696,15.264-8.576,18.816-9.792c57.24,24.904,100.616,75.824,115.16,137.752
		c-22.456-11.472-63.648-24.936-120.168-12.096l3.544,15.608c63.832-14.536,105.56,7.264,120.32,17.12
		c0.888,7.088,1.416,14.28,1.544,21.576c-18.28-16.392-55.064-37.592-115.52-23.872l3.544,15.608
		c18.184-4.144,33.776-4.656,47.192-3.12c2.536,22.8-0.704,45.92-9.608,67.248l14.768,6.16c9.312-22.312,13.12-46.392,11.248-70.296
		c6.032,1.664,11.472,3.712,16.304,6.032c1.048,30.064-5.936,59.88-20.504,86.48l14.032,7.688
		c14.28-26.08,21.928-54.976,22.568-84.368c7.984,6.104,12.896,11.904,15.144,14.904C441,331.352,404.272,386.984,351.64,419z"/>
</g>
<circle style="fill:#FFA64D;" cx="248.008" cy="248" r="95.912"/>
<path style="fill:#333333;" d="M248,312c-35.288,0-64-28.712-64-64s28.712-64,64-64s64,28.712,64,64S283.288,312,248,312z M248,200
	c-26.472,0-48,21.528-48,48s21.528,48,48,48s48-21.528,48-48S274.472,200,248,200z"/>
<g>
</g>
<g>
</g>
<g>
</g>
<g>
</g>
<g>
</g>
<g>
</g>
<g>
</g>
<g>
</g>
<g>
</g>
<g>
</g>
<g>
</g>
<g>
</g>
<g>
</g>
<g>
</g>
<g>
</g>
</svg>
