<?xml version="1.0" encoding="iso-8859-1"?>
<!-- Generator: Adobe Illustrator 19.0.0, SVG Export Plug-In . SVG Version: 6.00 Build 0)  -->
<svg version="1.1" id="Layer_1" xmlns="http://www.w3.org/2000/svg" xmlns:xlink="http://www.w3.org/1999/xlink" x="0px" y="0px"
	 viewBox="0 0 495.976 495.976" style="enable-background:new 0 0 495.976 495.976;" xml:space="preserve">
<g>
	<path style="fill:#333333;" d="M160,343.916v0.072h16v-16h-6.16c-5.096-4.96-9.592-10.336-13.584-16H184v-16h-37.056
		c-7.088-14.8-10.944-31.056-10.944-48.04c0-16.952,3.84-33.176,10.912-47.96H184v-16h-27.8c3.984-5.664,8.48-11.04,13.56-16H176
		v-16h-9.376H160h-24l-32.224,9.976c14.608-24.568,35.112-44.976,60.224-59.472c3.048-1.768,6.128-3.408,9.232-4.952l-7.12-14.328
		c-3.408,1.688-6.776,3.504-10.112,5.424c-32.448,18.728-57.952,46.416-73.992,80.072l-20.064,6.216
		c16.488-42.096,46.536-77.32,86.048-100.136c19.72-11.392,40.968-19.264,63.16-23.416l-2.936-15.736
		C184.24,40.124,161.288,48.628,140,60.924c-46.304,26.736-80.56,69.24-97.12,119.904l-18.552,5.744
		C40.456,127.948,79.072,77.628,132,47.076c33.944-19.6,72.488-30.344,111.464-31.056l-0.288-16
		c-41.68,0.768-82.888,12.24-119.168,33.192C64.512,67.564,21.952,125.276,6.464,192.108l-6.464,2v107.768l133.616,41.752
		L160,343.916z M16,205.876l121.224-37.88h11.184C130.264,190.604,120,218.828,120,247.956c0,29.176,10.28,57.424,28.464,80.04
		h-11.248L16,290.108V205.876z"/>
	<path style="fill:#333333;" d="M375.072,276.236l0.064-0.04l-8-13.856l-13.848,8l3.072,5.328c-1.752,6.896-4.16,13.48-7.064,19.768
		l-13.872-24.032l-13.856,8l18.528,32.096c-9.272,13.544-21.424,25.008-36.128,33.496c-14.672,8.472-30.656,13.256-46.992,14.528
		l-18.544-32.12l-13.856,8l13.896,24.08c-6.896-0.624-13.792-1.824-20.632-3.744l-3.112-5.408l-13.864,8l8,13.856l0,0l12,20.784
		l24.744,22.912c-28.568-0.368-56.496-7.912-81.608-22.408c-3.048-1.76-6.016-3.6-8.912-5.512l-8.84,13.328
		c3.168,2.104,6.416,4.12,9.752,6.048c28.184,16.272,59.592,24.688,91.712,24.688c4.856,0,9.728-0.28,14.608-0.664l15.424,14.28
		c-44.712,6.776-90.232-1.632-129.744-24.456c-19.72-11.384-37.168-25.848-51.856-42.992L83.992,388.62
		c15.872,18.512,34.72,34.136,56.008,46.432c33.168,19.152,70.256,28.984,107.808,28.984c14.896,0,29.856-1.624,44.672-4.752
		l14.168,13.12C247.808,487.756,184.92,479.46,132,448.908c-33.944-19.592-62.512-47.6-82.632-81l-13.704,8.248
		C57.168,411.868,87.712,441.82,124,462.764c38.056,21.968,80.928,33.192,124.072,33.192c24.28,0,48.616-3.712,72.24-10.904
		l5.024,4.648l93.328-53.88l-30.648-136.584L375.072,276.236z M327.528,469.964l-93.424-86.04l-5.52-9.568
		c6.48,0.992,13.008,1.52,19.52,1.52c22.264,0,44.368-5.76,63.864-17.016c25.256-14.592,44.584-37.616,55.08-64.672l5.624,9.736
		l27.808,123.92L327.528,469.964z"/>
	<path style="fill:#333333;" d="M417.168,66.756l1.496-6.592L325.336,6.276l-102.96,94.84l-13.448,22.704l-0.064-0.04l-3.344,5.792
		l-0.016,0.024l0,0l-4.648,8.048l13.856,8l3.072-5.328c6.848-1.928,13.752-3.144,20.648-3.768L224.56,160.58l13.856,8l18.528-32.096
		c16.36,1.264,32.368,6.048,47.072,14.536c14.68,8.48,26.808,19.92,36.08,33.424l-18.544,32.128l13.856,8l13.904-24.08
		c2.912,6.288,5.32,12.864,7.072,19.752l-3.112,5.4l13.84,8l4.688-8.12l0,0l15.32-26.52l7.464-32.896
		c13.976,24.936,21.392,52.896,21.392,81.888c0,3.52-0.112,7.008-0.328,10.472l15.968,1c0.24-3.792,0.36-7.616,0.36-11.472
		c0-37.464-11.216-73.384-32.344-104.104l4.648-20.48c28.208,35.336,43.696,78.96,43.696,124.584
		c0,22.768-3.808,45.104-11.304,66.408l15.096,5.312c8.104-23.008,12.208-47.144,12.208-71.72
		c0-53.488-19.616-104.496-55.248-144.184L413,84.996c42.704,43.28,66.976,101.888,66.976,163c0,39.192-9.976,77.944-28.84,112.056
		l14,7.752c20.176-36.488,30.84-77.904,30.84-119.808C496,179.292,467.296,113.58,417.168,66.756z M312.04,137.156
		c-25.272-14.584-54.88-19.808-83.552-15.36l5.624-9.744l93.416-86.04l72.952,42.12l-27.8,123.92l-5.592,9.688
		C356.576,174.732,337.264,151.724,312.04,137.156z"/>
	<path style="fill:#333333;" d="M434.8,385.548l12.88,9.488c3.28-4.448,6.424-9.024,9.352-13.6l-13.48-8.624
		C440.784,377.148,437.864,381.396,434.8,385.548z"/>
	<path style="fill:#333333;" d="M445.912,334.604l-14.648-6.44c-2.128,4.84-4.464,9.648-6.952,14.28l14.104,7.56
		C441.096,345.012,443.616,339.828,445.912,334.604z"/>
	<path style="fill:#333333;" d="M429.928,275.58l-15.824-2.392c-0.768,5.088-1.792,10.224-3.04,15.256l15.528,3.84
		C427.96,286.788,429.08,281.164,429.928,275.58z"/>
	<path style="fill:#333333;" d="M275.504,1.54c-5.48-0.608-11.016-1.048-16.472-1.296l-0.728,15.984
		c5.16,0.232,10.296,0.64,15.416,1.216L275.504,1.54z"/>
	<path style="fill:#333333;" d="M225.824,49.196c5.184-0.576,10.504-0.952,15.824-1.128l-0.496-15.984
		c-5.736,0.176-11.488,0.584-17.088,1.2L225.824,49.196z"/>
	<path style="fill:#333333;" d="M186.768,91.548c4.816-1.88,9.776-3.56,14.744-5l-4.448-15.376
		c-5.44,1.568-10.856,3.416-16.12,5.472L186.768,91.548z"/>
	<path style="fill:#333333;" d="M35.48,340.996l-14.664,6.392c2.168,4.976,4.56,9.992,7.104,14.912l14.208-7.344
		C39.76,350.372,37.536,345.716,35.48,340.996z"/>
	<path style="fill:#333333;" d="M74.032,376.076l12.896-9.472c-3.144-4.28-6.136-8.704-8.88-13.16l-13.608,8.424
		C67.416,366.676,70.64,371.46,74.032,376.076z"/>
	<path style="fill:#333333;" d="M120.336,380.508c4.104,3.952,8.416,7.728,12.808,11.232l9.984-12.496
		c-4.008-3.2-7.952-6.656-11.696-10.264L120.336,380.508z"/>
</g>
<circle style="fill:#FFA64D;" cx="248.008" cy="247.948" r="95.912"/>
<path style="fill:#333333;" d="M248,311.948c-35.288,0-64-28.712-64-64s28.712-64,64-64s64,28.712,64,64
	S283.288,311.948,248,311.948z M248,199.948c-26.472,0-48,21.528-48,48s21.528,48,48,48c26.472,0,48-21.528,48-48
	S274.472,199.948,248,199.948z"/>
<g>
</g>
<g>
</g>
<g>
</g>
<g>
</g>
<g>
</g>
<g>
</g>
<g>
</g>
<g>
</g>
<g>
</g>
<g>
</g>
<g>
</g>
<g>
</g>
<g>
</g>
<g>
</g>
<g>
</g>
</svg>
